<mxfile host="app.diagrams.net" modified="2021-03-07T06:24:01.942Z" agent="5.0 (Windows NT 10.0; Win64; x64) AppleWebKit/537.36 (KHTML, like Gecko) Chrome/88.0.4324.150 Safari/537.36" etag="kbHlFnAoHcjwJEq5mSWX" version="14.4.3" type="github">
  <diagram id="1CnjTpesiD_UfG5rsC55" name="第 1 页">
    <mxGraphModel dx="865" dy="457" grid="1" gridSize="10" guides="1" tooltips="1" connect="1" arrows="1" fold="1" page="1" pageScale="1" pageWidth="827" pageHeight="1169" math="0" shadow="0">
      <root>
        <mxCell id="0" />
        <mxCell id="1" parent="0" />
        <mxCell id="XmAlV_hQrLuwz_3IF-6b-1" value="Page" style="rounded=1;whiteSpace=wrap;html=1;" vertex="1" parent="1">
          <mxGeometry x="426" y="120" width="120" height="30" as="geometry" />
        </mxCell>
        <mxCell id="XmAlV_hQrLuwz_3IF-6b-2" value="Pagination&amp;lt;T&amp;gt;" style="rounded=1;whiteSpace=wrap;html=1;" vertex="1" parent="1">
          <mxGeometry x="500" y="190" width="120" height="30" as="geometry" />
        </mxCell>
        <mxCell id="XmAlV_hQrLuwz_3IF-6b-3" value="CategoryService" style="rounded=1;whiteSpace=wrap;html=1;" vertex="1" parent="1">
          <mxGeometry x="500" y="260" width="120" height="30" as="geometry" />
        </mxCell>
        <mxCell id="XmAlV_hQrLuwz_3IF-6b-4" value="" style="endArrow=classic;html=1;exitX=0.75;exitY=1;exitDx=0;exitDy=0;entryX=0.5;entryY=0;entryDx=0;entryDy=0;" edge="1" parent="1" source="XmAlV_hQrLuwz_3IF-6b-1" target="XmAlV_hQrLuwz_3IF-6b-2">
          <mxGeometry width="50" height="50" relative="1" as="geometry">
            <mxPoint x="440" y="230" as="sourcePoint" />
            <mxPoint x="490" y="180" as="targetPoint" />
          </mxGeometry>
        </mxCell>
        <mxCell id="XmAlV_hQrLuwz_3IF-6b-5" value="" style="endArrow=classic;html=1;exitX=0.5;exitY=1;exitDx=0;exitDy=0;entryX=0.5;entryY=0;entryDx=0;entryDy=0;" edge="1" parent="1" source="XmAlV_hQrLuwz_3IF-6b-2" target="XmAlV_hQrLuwz_3IF-6b-3">
          <mxGeometry width="50" height="50" relative="1" as="geometry">
            <mxPoint x="560" y="370" as="sourcePoint" />
            <mxPoint x="610" y="320" as="targetPoint" />
          </mxGeometry>
        </mxCell>
        <mxCell id="XmAlV_hQrLuwz_3IF-6b-6" value="CategoryController" style="rounded=1;whiteSpace=wrap;html=1;" vertex="1" parent="1">
          <mxGeometry x="330" y="260" width="120" height="30" as="geometry" />
        </mxCell>
        <mxCell id="XmAlV_hQrLuwz_3IF-6b-7" value="" style="endArrow=classic;html=1;entryX=1;entryY=0.5;entryDx=0;entryDy=0;exitX=0;exitY=0.5;exitDx=0;exitDy=0;" edge="1" parent="1" source="XmAlV_hQrLuwz_3IF-6b-3" target="XmAlV_hQrLuwz_3IF-6b-6">
          <mxGeometry width="50" height="50" relative="1" as="geometry">
            <mxPoint x="430" y="370" as="sourcePoint" />
            <mxPoint x="480" y="320" as="targetPoint" />
          </mxGeometry>
        </mxCell>
        <mxCell id="XmAlV_hQrLuwz_3IF-6b-8" value="categoryList.html" style="rounded=1;whiteSpace=wrap;html=1;" vertex="1" parent="1">
          <mxGeometry x="160" y="260" width="120" height="30" as="geometry" />
        </mxCell>
        <mxCell id="XmAlV_hQrLuwz_3IF-6b-9" value="" style="endArrow=classic;html=1;entryX=1;entryY=0.5;entryDx=0;entryDy=0;exitX=0;exitY=0.5;exitDx=0;exitDy=0;" edge="1" parent="1">
          <mxGeometry width="50" height="50" relative="1" as="geometry">
            <mxPoint x="330" y="274.58" as="sourcePoint" />
            <mxPoint x="280" y="274.58" as="targetPoint" />
          </mxGeometry>
        </mxCell>
      </root>
    </mxGraphModel>
  </diagram>
</mxfile>
